<svg xmlns="http://www.w3.org/2000/svg" viewBox="0 0 254.41 293.76"><defs><style>.cls-1{fill:#053e51;}.cls-1,.cls-2{stroke:#000;}.cls-1,.cls-2,.cls-3,.cls-4{stroke-miterlimit:10;}.cls-2,.cls-4{fill:#fff;}.cls-3{fill:#69c8ce;}.cls-3,.cls-4{stroke:#fff;}</style></defs><title>Asset 1</title><g id="Layer_2" data-name="Layer 2"><g id="Layer_1-2" data-name="Layer 1"><polygon class="cls-1" points="253.91 220.03 253.91 73.73 127.2 0.58 0.5 73.73 0.5 220.03 127.2 293.19 253.91 220.03"/><polygon class="cls-2" points="232 207.39 232 86.38 127.2 25.87 22.41 86.38 22.41 207.39 127.2 267.89 232 207.39"/><polygon class="cls-3" points="211.07 195.3 211.07 98.46 127.2 50.04 43.33 98.46 43.33 195.3 127.2 243.73 211.07 195.3"/><path class="cls-4" d="M77.32,145.67,101,124.93h8.88L86.2,145.67l23.64,20.73H101Z" transform="translate(-5.11)"/><path class="cls-4" d="M117.51,172.29l23.71-59.14h5.89l-23.64,59.14Z" transform="translate(-5.11)"/><path class="cls-4" d="M187.3,145.67,163.66,166.4h-8.88l23.64-20.73-23.64-20.74h8.88Z" transform="translate(-5.11)"/></g></g></svg>